<svg width="143" height="43" viewBox="0 0 143 43" fill="none" xmlns="http://www.w3.org/2000/svg">
<path d="M0.55 8.068V1.186H17.352V32H9.292V8.068H0.55ZM48.5695 15.942C50.5948 15.942 52.4755 16.2107 54.2115 16.748C55.9888 17.2853 57.5388 18.0913 58.8615 19.166C60.1842 20.1993 61.2175 21.522 61.9615 23.134C62.7055 24.746 63.0775 26.606 63.0775 28.714C63.0775 31.566 62.3542 33.984 60.9075 35.968C59.4608 37.952 57.4355 39.4607 54.8315 40.494C52.2275 41.5687 49.1688 42.106 45.6555 42.106C43.1755 42.106 40.8402 41.8167 38.6495 41.238C36.4588 40.6593 34.5162 39.8327 32.8215 38.758C31.1268 37.6833 29.7628 36.3607 28.7295 34.79C27.7375 33.2607 27.2002 31.504 27.1175 29.52H34.8055C34.9708 30.8013 35.5495 31.876 36.5415 32.744C37.5335 33.6533 38.7942 34.3353 40.3235 34.79C41.8942 35.2447 43.5682 35.472 45.3455 35.472C46.5855 35.472 47.7635 35.3273 48.8795 35.038C50.0368 34.79 51.0702 34.3973 51.9795 33.86C52.9302 33.3227 53.6742 32.62 54.2115 31.752C54.7488 30.884 55.0175 29.8507 55.0175 28.652C55.0175 27.4533 54.7488 26.42 54.2115 25.552C53.7155 24.684 53.0128 23.9607 52.1035 23.382C51.2355 22.8033 50.2228 22.39 49.0655 22.142C47.9495 21.8527 46.7715 21.708 45.5315 21.708C44.2502 21.708 42.9482 21.832 41.6255 22.08C40.3028 22.2867 39.0835 22.6793 37.9675 23.258C36.8515 23.8367 35.9628 24.622 35.3015 25.614L28.2955 24.312L30.1555 1H58.8615V7.882H37.6575L36.4175 22.886L35.5495 22.452C36.1282 21.0467 37.0788 19.8687 38.4015 18.918C39.7242 17.9673 41.2742 17.244 43.0515 16.748C44.8288 16.2107 46.6682 15.942 48.5695 15.942ZM88.5416 32.744C84.6562 32.744 81.2256 32.124 78.2496 30.884C75.3149 29.644 73.0209 27.846 71.3676 25.49C69.7142 23.0927 68.8876 20.158 68.8876 16.686C68.8876 13.214 69.7142 10.2793 71.3676 7.882C73.0209 5.44333 75.3149 3.604 78.2496 2.364C81.2256 1.124 84.6562 0.503999 88.5416 0.503999C92.4269 0.503999 95.8162 1.124 98.7096 2.364C101.644 3.604 103.938 5.44333 105.592 7.882C107.245 10.2793 108.072 13.214 108.072 16.686C108.072 20.158 107.245 23.0927 105.592 25.49C103.938 27.846 101.644 29.644 98.7096 30.884C95.8162 32.124 92.4269 32.744 88.5416 32.744ZM88.5416 26.544C90.6496 26.544 92.5509 26.172 94.2456 25.428C95.9816 24.6427 97.3456 23.5267 98.3376 22.08C99.3709 20.592 99.8876 18.794 99.8876 16.686C99.8876 14.578 99.3709 12.78 98.3376 11.292C97.3456 9.76267 96.0022 8.60533 94.3076 7.82C92.6129 7.03467 90.6909 6.642 88.5416 6.642C86.4336 6.642 84.5116 7.03467 82.7756 7.82C81.0396 8.60533 79.6549 9.742 78.6216 11.23C77.5882 12.718 77.0716 14.5367 77.0716 16.686C77.0716 18.794 77.5676 20.592 78.5596 22.08C79.5929 23.5267 80.9776 24.6427 82.7136 25.428C84.4496 26.172 86.3922 26.544 88.5416 26.544Z" fill="white"/>
<path d="M114.475 12.284H142.995V18.174H114.475V12.284ZM132.083 3.542V26.978H125.387V3.542H132.083Z" fill="#97C10C"/>
</svg>
