<svg width="37" height="42" viewBox="0 0 37 42" fill="none" xmlns="http://www.w3.org/2000/svg">
<path d="M21.548 14.942C23.5733 14.942 25.454 15.2107 27.19 15.748C28.9673 16.2853 30.5173 17.0913 31.84 18.166C33.1627 19.1993 34.196 20.522 34.94 22.134C35.684 23.746 36.056 25.606 36.056 27.714C36.056 30.566 35.3327 32.984 33.886 34.968C32.4393 36.952 30.414 38.4607 27.81 39.494C25.206 40.5687 22.1473 41.106 18.634 41.106C16.154 41.106 13.8187 40.8167 11.628 40.238C9.43733 39.6593 7.49467 38.8327 5.8 37.758C4.10533 36.6833 2.74133 35.3607 1.708 33.79C0.716 32.2607 0.178667 30.504 0.0960001 28.52H7.784C7.94933 29.8013 8.528 30.876 9.52 31.744C10.512 32.6533 11.7727 33.3353 13.302 33.79C14.8727 34.2447 16.5467 34.472 18.324 34.472C19.564 34.472 20.742 34.3273 21.858 34.038C23.0153 33.79 24.0487 33.3973 24.958 32.86C25.9087 32.3227 26.6527 31.62 27.19 30.752C27.7273 29.884 27.996 28.8507 27.996 27.652C27.996 26.4533 27.7273 25.42 27.19 24.552C26.694 23.684 25.9913 22.9607 25.082 22.382C24.214 21.8033 23.2013 21.39 22.044 21.142C20.928 20.8527 19.75 20.708 18.51 20.708C17.2287 20.708 15.9267 20.832 14.604 21.08C13.2813 21.2867 12.062 21.6793 10.946 22.258C9.83 22.8367 8.94133 23.622 8.28 24.614L1.274 23.312L3.134 0H31.84V6.882H10.636L9.396 21.886L8.528 21.452C9.10667 20.0467 10.0573 18.8687 11.38 17.918C12.7027 16.9673 14.2527 16.244 16.03 15.748C17.8073 15.2107 19.6467 14.942 21.548 14.942Z" fill="white"/>
</svg>
