<svg width="140" height="54" viewBox="0 0 140 54" fill="none" xmlns="http://www.w3.org/2000/svg">
<path d="M16.476 38.412C13.2933 38.412 10.462 37.854 7.982 36.738C5.54333 35.5807 3.642 33.9893 2.278 31.964C0.914 29.9387 0.232 27.562 0.232 24.834C0.273333 22.0233 1.05867 19.6053 2.588 17.58C4.11733 15.5547 6.32867 14.0047 9.222 12.93C12.1153 11.814 15.608 11.256 19.7 11.256C23.8333 11.256 27.3673 11.7727 30.302 12.806C33.278 13.8393 35.5513 15.348 37.122 17.332C38.734 19.2747 39.5193 21.672 39.478 24.524C39.478 25.5987 39.292 26.7353 38.92 27.934C38.548 29.1327 37.9073 30.4347 36.998 31.84C36.874 32.0467 36.5227 32.584 35.944 33.452C35.4067 34.2787 34.704 35.312 33.836 36.552C33.0093 37.792 32.1 39.1353 31.108 40.582C30.1573 41.9873 29.2067 43.372 28.256 44.736C27.3053 46.1413 26.4373 47.402 25.652 48.518C24.8667 49.6753 24.226 50.5847 23.73 51.246C23.2753 51.9487 23.048 52.3 23.048 52.3H12.818L33.712 26.322L36.192 24.462C34.58 26.6113 33.03 28.554 31.542 30.29C30.054 31.9847 28.566 33.452 27.078 34.692C25.59 35.8907 23.978 36.8207 22.242 37.482C20.506 38.102 18.584 38.412 16.476 38.412ZM19.7 17.766C16.3107 17.766 13.6033 18.3653 11.578 19.564C9.594 20.7627 8.58133 22.5607 8.54 24.958C8.49867 27.2727 9.44933 29.0707 11.392 30.352C13.376 31.592 16.0627 32.212 19.452 32.212C23.0067 32.212 25.838 31.53 27.946 30.166C30.0953 28.802 31.1907 27.0453 31.232 24.896C31.2733 23.3253 30.798 22.0233 29.806 20.99C28.814 19.9153 27.45 19.1093 25.714 18.572C23.978 18.0347 21.9733 17.766 19.7 17.766ZM66.2785 26.942C68.3038 26.942 70.1845 27.2107 71.9205 27.748C73.6978 28.2853 75.2478 29.0913 76.5705 30.166C77.8931 31.1993 78.9265 32.522 79.6705 34.134C80.4145 35.746 80.7865 37.606 80.7865 39.714C80.7865 42.566 80.0631 44.984 78.6165 46.968C77.1698 48.952 75.1445 50.4607 72.5405 51.494C69.9365 52.5687 66.8778 53.106 63.3645 53.106C60.8845 53.106 58.5491 52.8167 56.3585 52.238C54.1678 51.6593 52.2251 50.8327 50.5305 49.758C48.8358 48.6833 47.4718 47.3607 46.4385 45.79C45.4465 44.2607 44.9091 42.504 44.8265 40.52H52.5145C52.6798 41.8013 53.2585 42.876 54.2505 43.744C55.2425 44.6533 56.5031 45.3353 58.0325 45.79C59.6031 46.2447 61.2771 46.472 63.0545 46.472C64.2945 46.472 65.4725 46.3273 66.5885 46.038C67.7458 45.79 68.7791 45.3973 69.6885 44.86C70.6391 44.3227 71.3831 43.62 71.9205 42.752C72.4578 41.884 72.7265 40.8507 72.7265 39.652C72.7265 38.4533 72.4578 37.42 71.9205 36.552C71.4245 35.684 70.7218 34.9607 69.8125 34.382C68.9445 33.8033 67.9318 33.39 66.7745 33.142C65.6585 32.8527 64.4805 32.708 63.2405 32.708C61.9591 32.708 60.6571 32.832 59.3345 33.08C58.0118 33.2867 56.7925 33.6793 55.6765 34.258C54.5605 34.8367 53.6718 35.622 53.0105 36.614L46.0045 35.312L47.8645 12H76.5705V18.882H55.3665L54.1265 33.886L53.2585 33.452C53.8371 32.0467 54.7878 30.8687 56.1105 29.918C57.4331 28.9673 58.9831 28.244 60.7605 27.748C62.5378 27.2107 64.3771 26.942 66.2785 26.942Z" fill="white"/>
<path d="M97.8098 22.354C95.4538 22.354 93.3872 21.9407 91.6098 21.114C89.8738 20.2873 88.5305 19.1093 87.5798 17.58C86.6292 16.0507 86.1538 14.232 86.1538 12.124C86.1538 8.85867 87.2078 6.33733 89.3158 4.56C91.4238 2.74133 94.2552 1.832 97.8098 1.832C101.364 1.832 104.175 2.74133 106.242 4.56C108.35 6.33733 109.404 8.85867 109.404 12.124C109.404 14.232 108.928 16.0507 107.978 17.58C107.027 19.1093 105.684 20.2873 103.948 21.114C102.212 21.9407 100.166 22.354 97.8098 22.354ZM97.8098 17.27C99.3805 17.27 100.641 16.8153 101.592 15.906C102.584 14.9553 103.08 13.6947 103.08 12.124C103.08 10.512 102.584 9.25133 101.592 8.342C100.641 7.39133 99.3805 6.916 97.8098 6.916C96.1978 6.916 94.8958 7.39133 93.9038 8.342C92.9532 9.25133 92.4778 10.512 92.4778 12.124C92.4778 13.6947 92.9532 14.9553 93.9038 15.906C94.8958 16.8153 96.1978 17.27 97.8098 17.27ZM128.438 43.744C124.883 43.744 122.052 42.8553 119.944 41.078C117.836 39.2593 116.782 36.738 116.782 33.514C116.782 30.29 117.836 27.7687 119.944 25.95C122.052 24.1313 124.883 23.222 128.438 23.222C131.951 23.222 134.741 24.1313 136.808 25.95C138.916 27.7687 139.97 30.29 139.97 33.514C139.97 36.738 138.916 39.2593 136.808 41.078C134.741 42.8553 131.951 43.744 128.438 43.744ZM128.438 38.66C130.008 38.66 131.269 38.2053 132.22 37.296C133.212 36.3867 133.708 35.126 133.708 33.514C133.708 31.9433 133.212 30.6827 132.22 29.732C131.269 28.7813 130.008 28.306 128.438 28.306C126.826 28.306 125.524 28.7813 124.532 29.732C123.581 30.6413 123.106 31.902 123.106 33.514C123.106 35.126 123.581 36.3867 124.532 37.296C125.524 38.2053 126.826 38.66 128.438 38.66ZM122.238 0.467997L125.586 2.328L101.902 45.108L98.6778 43.124L122.238 0.467997Z" fill="#97C10C"/>
</svg>
