<svg width="571" height="475" viewBox="0 0 571 475" fill="none" xmlns="http://www.w3.org/2000/svg">
<g opacity="0.3">
<path d="M294.056 190.386C293.662 190.445 293.267 190.391 292.891 190.254C292.154 189.961 291.601 189.286 291.499 188.495L281.475 120.354C281.357 119.565 281.687 118.757 282.306 118.261C282.625 118.02 282.987 117.852 283.381 117.793C283.775 117.734 284.17 117.788 284.53 117.927L348.289 143.001C349.042 143.291 349.579 143.968 349.697 144.757C349.816 145.546 349.501 146.351 348.869 146.865L295.131 189.918C294.814 190.175 294.45 190.326 294.056 190.386ZM295.393 183.927L343.013 145.776L286.518 123.548L295.393 183.927Z" fill="white"/>
<path d="M175.231 97.7989C174.836 97.8581 174.426 97.8068 174.066 97.6673L110.047 72.4867C109.31 72.1942 108.773 71.5167 108.653 70.7122C108.534 69.9234 108.849 69.1181 109.484 68.6195L163.967 24.9378C164.286 24.6964 164.648 24.5292 165.042 24.47C165.436 24.4108 165.831 24.4644 166.207 24.6016L230.225 49.7822C230.963 50.0747 231.5 50.7522 231.636 51.5543C231.754 52.3431 231.44 53.1484 230.805 53.647L176.29 97.3334C175.987 97.5724 175.609 97.742 175.215 97.8012L175.231 97.7989ZM115.339 69.7083L174.509 92.9876L224.965 52.5559L165.779 29.2789L115.323 69.7106L115.339 69.7083Z" fill="white"/>
<path d="M239.411 119.851C239.001 119.913 238.624 119.873 238.265 119.733C237.493 119.429 236.956 118.752 236.838 117.963L229.449 67.7167C229.329 66.9122 229.646 66.1227 230.278 65.6084C230.581 65.3693 230.959 65.1997 231.353 65.1405C231.747 65.0814 232.142 65.135 232.517 65.2722L279.52 83.7643C280.273 84.0545 280.81 84.732 280.928 85.5207C281.049 86.3252 280.734 87.1305 280.115 87.6266L240.486 119.383C240.183 119.622 239.805 119.792 239.411 119.851ZM240.733 113.395L274.26 86.5379L234.489 70.8956L240.73 113.379L240.733 113.395Z" fill="white"/>
<path d="M120.876 138.395C120.482 138.455 120.073 138.419 119.73 138.277L73.1046 119.938C72.3516 119.648 71.8146 118.97 71.6964 118.182C71.5757 117.377 71.8904 116.572 72.5251 116.073L111.809 84.5943C112.126 84.3371 112.49 84.1857 112.884 84.1265C113.278 84.0673 113.673 84.1209 114.049 84.2581C114.802 84.5483 115.339 85.2257 115.457 86.0144L122.782 135.835C122.902 136.64 122.588 137.445 121.953 137.943C121.65 138.182 121.27 138.336 120.876 138.395ZM78.3803 117.162L117.74 132.64L111.563 90.5831L78.3803 117.162Z" fill="white"/>
<path d="M89.3129 222.376C88.9186 222.436 88.526 222.398 88.1483 222.245L25.0221 197.415C24.2691 197.125 23.7321 196.447 23.6115 195.643C23.4933 194.854 23.8079 194.049 24.4403 193.535L77.6447 150.901C77.9609 150.644 78.3251 150.492 78.7194 150.433C79.1136 150.374 79.5087 150.428 79.884 150.565C80.637 150.855 81.1763 151.548 81.2969 152.353L91.2163 219.8C91.3346 220.589 91.0066 221.412 90.3718 221.911C90.0824 222.132 89.7048 222.301 89.3105 222.361L89.3129 222.376ZM30.2979 194.639L86.1606 216.624L77.3844 156.908L30.2979 194.639Z" fill="white"/>
<path d="M99.9043 350.894L152.482 297.837L151.706 292.663L94.1941 349.59L99.9043 350.894Z" fill="white"/>
<path d="M226.935 449.66C226.556 449.717 226.13 449.668 225.755 449.53C225.033 449.235 224.481 448.56 224.36 447.756L182.297 161.638C182.285 161.559 182.273 161.48 182.277 161.399L182.256 161.257L172.66 95.8876C172.542 95.0988 172.872 94.2912 173.488 93.7793L227.99 50.1149C228.306 49.8577 228.67 49.7063 229.065 49.6471C229.459 49.588 229.851 49.6259 230.213 49.7812C230.966 50.0715 231.505 50.7648 231.626 51.5693L240.707 113.402L277.262 84.1093C277.578 83.8522 277.942 83.7007 278.336 83.6416C278.73 83.5824 279.107 83.6227 279.469 83.778C280.24 84.0817 280.777 84.7592 280.895 85.548L295.367 183.961L346.01 143.375C346.326 143.118 346.706 142.965 347.1 142.905C347.495 142.846 347.89 142.9 348.249 143.039C349.02 143.343 349.557 144.021 349.675 144.809L376.701 328.632C376.821 329.436 376.504 330.226 375.901 330.72L228.014 449.224C227.698 449.481 227.334 449.632 226.94 449.691L226.935 449.66ZM177.313 96.4957L186.806 160.961C186.806 160.961 186.827 161.103 186.823 161.184L186.871 161.5L201.815 263.277L201.836 263.419L201.857 263.561L228.287 443.199L372.071 327.972L345.791 149.328L295.147 189.913C294.845 190.152 294.467 190.322 294.073 190.381C293.679 190.44 293.268 190.389 292.909 190.249C292.172 189.957 291.635 189.279 291.516 188.49L277.045 90.0776L240.506 119.368C240.203 119.607 239.826 119.777 239.432 119.836C239.038 119.895 238.643 119.842 238.267 119.704C237.514 119.414 236.975 118.721 236.857 117.932L227.773 56.0832L177.345 96.491L177.313 96.4957Z" fill="white"/>
<path d="M226.893 449.682C226.515 449.739 226.088 449.69 225.713 449.553L52.0578 381.223C51.305 380.932 50.7681 380.255 50.6632 379.448L23.6222 195.628C23.5039 194.839 23.8184 194.034 24.453 193.535C24.7691 193.278 25.1333 193.127 25.5274 193.068C25.9216 193.009 26.3165 193.062 26.6918 193.199L86.1769 216.612L71.6981 118.152C71.5798 117.364 71.8943 116.558 72.5289 116.06C72.8473 115.819 73.2092 115.651 73.6033 115.592C73.9975 115.533 74.3925 115.587 74.7677 115.724L117.736 132.631L108.625 70.7059C108.506 69.9172 108.837 69.1095 109.455 68.6134C109.771 68.3563 110.136 68.2049 110.53 68.1457C110.924 68.0865 111.319 68.1402 111.694 68.2774L175.701 93.4635C176.454 93.7537 176.991 94.4312 177.109 95.22L187.078 162.969C187.095 163.079 187.109 163.174 187.123 163.268L187.142 163.394L203.981 278.017L204.026 278.317L228.846 447.115C228.964 447.904 228.649 448.709 228.017 449.223C227.715 449.462 227.35 449.614 226.956 449.673L226.893 449.682ZM54.9334 377.501L223.757 443.927L199.438 278.683L199.414 278.525L199.395 278.399L182.519 163.637C182.503 163.526 182.486 163.416 182.472 163.321L182.455 163.211L172.765 97.2107L113.606 73.9263L122.701 135.854C122.822 136.659 122.507 137.464 121.873 137.962C121.57 138.201 121.19 138.355 120.796 138.414C120.402 138.473 119.991 138.422 119.632 138.283L76.6633 121.375L91.1578 219.833C91.2761 220.622 90.9482 221.445 90.3137 221.943C90.0244 222.164 89.6626 222.331 89.2684 222.391C88.8742 222.45 88.4635 222.399 88.0883 222.261L28.6638 198.823L54.9334 377.501Z" fill="white"/>
<path d="M164.723 379.168C164.345 379.224 163.918 379.176 163.543 379.038L94.6777 350.935C93.9248 350.645 93.3879 349.967 93.283 349.16L81.5626 268.769C81.4442 267.981 81.7745 267.173 82.3933 266.677C82.7094 266.42 83.0737 266.268 83.4678 266.209C83.862 266.15 84.257 266.204 84.6323 266.341L152.748 290.524C153.501 290.814 154.038 291.492 154.156 292.281L166.642 376.589C166.76 377.378 166.446 378.183 165.813 378.698C165.511 378.937 165.147 379.088 164.752 379.147L164.723 379.168ZM97.5534 347.213L161.602 373.41L149.875 294.262L86.6068 271.98L97.5534 347.213Z" fill="white"/>
<path d="M226.515 430.416L360.345 249.261L361.608 257.894L227.778 439.049L226.515 430.416ZM364.59 278.205L365.887 286.85L282.734 399.381L263.997 414.403L364.608 278.219L364.59 278.205ZM222.254 401.473L356.082 220.303L357.379 228.947L223.533 410.104L222.239 401.476L222.254 401.473ZM218.025 372.526L351.853 191.356L353.147 199.984L219.286 381.144L218.023 372.51L218.025 372.526ZM368.885 307.159L370.148 315.792L345.612 349.008L326.86 364.032L368.869 307.161L368.885 307.159ZM213.762 343.568L347.592 162.413L348.887 171.042L215.025 352.201L213.731 343.573L213.762 343.568ZM209.533 314.621L310.704 177.659L329.473 162.632L210.811 323.252L209.517 314.623L209.533 314.621ZM205.301 285.658L289.055 172.295L290.318 180.928L206.566 294.307L205.27 285.663L205.301 285.658ZM201.085 256.693L284.808 143.334L286.104 151.979L202.337 265.36L201.088 256.709L201.085 256.693ZM196.825 227.75L280.563 114.39L281.825 123.023L198.088 236.384L196.825 227.75ZM192.562 198.792L266.383 98.8555L277.02 90.3397L277.58 94.0782L193.827 207.441L192.564 198.808L192.562 198.792ZM188.299 169.834L235.09 106.471L236.386 115.116L189.561 178.468L188.299 169.834ZM184.08 140.853L230.845 77.5265L232.141 86.171L185.343 149.487L184.08 140.853ZM179.817 111.895L210.866 69.8632L227.732 56.3476L227.862 57.2152L181.082 120.544L179.788 111.916L179.817 111.895Z" fill="white"/>
<path d="M138.191 366.308L157.677 339.931L156.451 331.227L132.366 363.811L138.175 366.311L138.191 366.308ZM157.649 374.68L161.764 369.11L160.538 360.406L151.841 372.18L157.649 374.68ZM112.908 355.44L118.716 357.94L153.574 310.753L152.346 302.033L112.892 355.442L112.908 355.44ZM99.2573 349.568L103.425 343.926L98.2079 349.129L99.2416 349.571L99.2573 349.568Z" fill="white"/>
</g>
<g opacity="0.6">
<path d="M529.929 158.895C529.821 159.062 529.676 159.189 529.508 159.277C529.153 159.459 528.726 159.435 528.392 159.218L457.875 113.247C457.546 113.034 457.349 112.654 457.37 112.256L461.444 26.4888C461.454 26.2899 461.514 26.0995 461.622 25.9325C461.73 25.7654 461.876 25.6384 462.044 25.5497C462.402 25.3628 462.829 25.3867 463.163 25.6032L533.674 71.5705C534.003 71.7834 534.2 72.1636 534.18 72.5614L530.105 158.329C530.099 158.522 530.039 158.713 529.931 158.88L529.929 158.895ZM459.618 111.738L527.977 156.303L531.932 73.1042L463.572 28.539L459.618 111.738Z" fill="#97C10C"/>
<path d="M459.414 112.931C459.309 113.092 459.16 113.225 458.992 113.314L383.744 151.788C383.393 151.964 382.968 151.949 382.633 151.733C382.305 151.52 382.108 151.14 382.125 150.747L386.194 64.972C386.204 64.7731 386.264 64.5828 386.372 64.4157C386.48 64.2486 386.625 64.1216 386.793 64.0329L462.048 25.5619C462.402 25.3806 462.824 25.4009 463.158 25.6174C463.486 25.8303 463.683 26.2106 463.661 26.5993L459.588 112.38C459.578 112.579 459.518 112.769 459.414 112.931ZM384.432 148.939L457.399 111.634L461.356 28.4165L388.388 65.7221L384.432 148.939Z" fill="#97C10C"/>
<path d="M456.489 135.162L455.571 136.582L453.902 171.674L455.612 172.782L456.419 171.535L456.125 171.684L457.82 136.024L456.489 135.162Z" fill="#97C10C"/>
<path d="M529.923 158.901C529.815 159.068 529.67 159.195 529.502 159.284L454.251 197.753C453.903 197.938 453.475 197.914 453.141 197.697L382.624 151.726C382.295 151.513 382.099 151.133 382.119 150.735C382.129 150.536 382.185 150.352 382.293 150.185C382.401 150.018 382.547 149.89 382.715 149.802L457.96 111.329C458.314 111.148 458.741 111.172 459.066 111.39L529.589 157.365C529.923 157.581 530.114 157.958 530.094 158.356C530.088 158.549 530.022 158.736 529.914 158.903L529.923 158.901ZM453.813 195.485L526.777 158.182L458.406 113.609L385.442 150.913L453.813 195.485Z" fill="#97C10C"/>
<path d="M490.59 156.577C490.54 156.655 490.471 156.712 490.394 156.758L455.244 174.731C455.08 174.815 454.881 174.804 454.725 174.703L421.785 153.228C421.629 153.127 421.538 152.95 421.547 152.766C421.551 152.674 421.576 152.587 421.626 152.509C421.676 152.431 421.746 152.373 421.822 152.328L456.973 134.354C457.137 134.271 457.336 134.281 457.492 134.382L490.437 155.861C490.593 155.962 490.684 156.139 490.675 156.323C490.671 156.415 490.641 156.499 490.59 156.577ZM455.12 172.186L486.572 156.106L457.1 136.894L425.648 152.974L455.12 172.186Z" fill="#97C10C"/>
<path d="M463.028 25.5552L462.769 30.966L483.586 128.388L486.632 130.362L464.411 26.4354L463.158 25.6235C463.113 25.5946 463.071 25.5749 463.028 25.5552ZM527.424 156.963L505.199 53.0188L502.159 51.0338L524.385 154.978L527.424 156.963ZM531.77 95.4152L525.581 66.3034L522.548 64.322L531.298 105.397L531.774 95.4096L531.77 95.4152ZM530.178 128.896L515.401 59.6683L512.362 57.6833L529.706 138.878L530.178 128.896ZM458.319 92.2726L463.193 115.081L466.235 117.075L458.796 82.2466L458.315 92.2782L458.319 92.2726ZM507.03 143.672L484.805 39.7271L481.765 37.7421L503.991 141.687L507.03 143.672ZM496.828 137.022L474.602 33.0776L471.563 31.0926L493.788 135.037L496.835 137.011L496.828 137.022ZM459.911 58.657L473.381 121.753L476.434 123.73L460.388 48.631L459.907 58.6625L459.911 58.657ZM517.225 150.332L495 46.3877L491.955 44.3991L514.18 148.344L517.227 150.318L517.225 150.332Z" fill="#97C10C"/>
<path d="M468.765 166.361L471.13 165.184L466.073 141.545L463.018 139.51L468.761 166.367L468.765 166.361ZM479.063 161.228L476.313 148.369L473.258 146.334L476.697 162.406L479.066 161.223L479.063 161.228ZM486.995 157.273L486.553 155.193L483.498 153.158L484.629 158.45L486.995 157.273ZM456.226 148.756L460.833 170.317L463.202 169.134L456.895 139.629L456.226 148.756ZM455.27 173.089L454.655 170.202L454.413 173.522L455.275 173.093L455.27 173.089Z" fill="#97C10C"/>
</g>
</svg>
