<svg width="233" height="17" viewBox="0 0 233 17" fill="none" xmlns="http://www.w3.org/2000/svg">
<path d="M0.508995 11.1484H4.152C4.22396 11.7201 4.5028 12.2413 4.98854 12.7122C5.49226 13.1662 6.1489 13.5277 6.95845 13.7967C7.76801 14.049 8.67651 14.1751 9.68396 14.1751C10.6015 14.1751 11.357 14.0826 11.9507 13.8976C12.5444 13.7127 12.9851 13.452 13.273 13.1157C13.5608 12.7794 13.7048 12.3759 13.7048 11.905C13.7048 11.451 13.5248 11.1063 13.165 10.8709C12.8052 10.6187 12.2386 10.4169 11.465 10.2656C10.6914 10.0974 9.67496 9.92928 8.41565 9.76113C7.4262 9.62661 6.49071 9.44164 5.6092 9.20623C4.72768 8.95401 3.94511 8.63452 3.26148 8.24778C2.59585 7.86103 2.06514 7.39021 1.66936 6.83531C1.29157 6.2636 1.10267 5.591 1.10267 4.81751C1.10267 3.85905 1.39051 3.0183 1.9662 2.29525C2.55987 1.57221 3.43239 1.0089 4.58376 0.605341C5.73513 0.20178 7.14735 0 8.82043 0C11.339 0 13.273 0.504451 14.6222 1.51335C15.9895 2.50544 16.6551 3.87587 16.6192 5.62463H13.1111C13.0391 4.63254 12.5894 3.9179 11.7618 3.48071C10.9523 3.04352 9.92682 2.82493 8.68551 2.82493C7.53414 2.82493 6.58066 2.98467 5.82508 3.30415C5.08748 3.62364 4.71868 4.17013 4.71868 4.94362C4.71868 5.24629 4.80863 5.51533 4.98854 5.75074C5.16844 5.96934 5.47427 6.16271 5.90603 6.33086C6.3378 6.49901 6.92247 6.65875 7.66007 6.81009C8.39766 6.96142 9.31516 7.11276 10.4126 7.26409C11.438 7.39861 12.3645 7.58358 13.192 7.81899C14.0376 8.03759 14.7572 8.33185 15.3508 8.70178C15.9625 9.0549 16.4303 9.5089 16.7541 10.0638C17.0779 10.6187 17.2398 11.2997 17.2398 12.1068C17.2398 13.0989 16.961 13.9649 16.4033 14.7047C15.8636 15.4278 15.018 15.9911 13.8667 16.3947C12.7333 16.7982 11.2581 17 9.44109 17C8.1458 17 7.00343 16.8739 6.01397 16.6217C5.02452 16.3526 4.16999 15.9995 3.45038 15.5623C2.73078 15.1251 2.1461 14.6459 1.69634 14.1246C1.24659 13.6034 0.922768 13.0821 0.724877 12.5608C0.544975 12.0396 0.473015 11.5687 0.508995 11.1484Z" fill="white"/>
<path d="M23.5634 7.06231H37.4068V9.86202H23.5634V7.06231ZM36.8131 0.327893H40.4022V16.6469H36.8131V0.327893ZM20.4061 0.327893H23.9952V16.6469H20.4061V0.327893Z" fill="white"/>
<path d="M47.2707 13.0905V10.2908H58.8204V13.0905H47.2707ZM42.9261 16.6469L51.1296 0.327893H55.0155L63.2999 16.6469H59.3871L52.209 1.94214H53.9361L46.812 16.6469H42.9261Z" fill="white"/>
<path d="M68.9955 7.06231H82.8389V9.86202H68.9955V7.06231ZM82.2452 0.327893H85.8343V16.6469H82.2452V0.327893ZM65.8382 0.327893H69.4273V16.6469H65.8382V0.327893Z" fill="white"/>
<path d="M89.5995 0.327893H108.354V3.1276L92.7838 14.7804L92.46 13.8472H108.354V16.6469H89.5995V13.8472L105.17 2.19436L105.494 3.1276H89.5995V0.327893Z" fill="white"/>
<path d="M114.865 13.0905V10.2908H126.415V13.0905H114.865ZM110.521 16.6469L118.724 0.327893H122.61L130.895 16.6469H126.982L119.804 1.94214H121.531L114.407 16.6469H110.521Z" fill="white"/>
<path d="M133.946 0.327893H137.535V16.6469H133.946V0.327893Z" fill="white"/>
<path d="M142.182 16.6469V0.327893H152.248C154.586 0.327893 156.358 0.697824 157.564 1.43768C158.787 2.16073 159.399 3.2453 159.399 4.69139C159.399 5.61622 159.156 6.34768 158.67 6.88576C158.184 7.40702 157.492 7.79377 156.592 8.04599C155.711 8.29822 154.667 8.45796 153.462 8.52522L153.57 8.34866C154.451 8.36548 155.279 8.42433 156.052 8.52522C156.844 8.62611 157.537 8.81108 158.13 9.08012C158.724 9.34916 159.192 9.7275 159.534 10.2151C159.875 10.686 160.046 11.3081 160.046 12.0816C160.046 13.0905 159.758 13.9313 159.183 14.6039C158.607 15.2596 157.806 15.7557 156.781 16.092C155.756 16.4283 154.568 16.6133 153.219 16.6469H142.182ZM145.771 13.8724H152.841C153.975 13.8724 154.847 13.7043 155.459 13.368C156.07 13.0148 156.376 12.4599 156.376 11.7033C156.376 11.1484 156.196 10.7448 155.837 10.4926C155.477 10.2404 155 10.089 154.406 10.0386C153.813 9.97132 153.174 9.93769 152.49 9.93769H145.771V13.8724ZM145.771 7.23887H152.113C153.246 7.23887 154.118 7.08754 154.73 6.78487C155.342 6.46538 155.648 5.9273 155.648 5.17062C155.648 4.41395 155.342 3.88427 154.73 3.5816C154.118 3.26212 153.309 3.10237 152.301 3.10237H145.771V7.23887Z" fill="white"/>
<path d="M179.732 0.327893C181.692 0.327893 183.33 0.546489 184.643 0.983679C185.956 1.42087 187 2.0178 187.773 2.77448C188.565 3.51434 189.122 4.37191 189.446 5.34718C189.788 6.32245 189.959 7.34817 189.959 8.42433C189.959 9.50049 189.77 10.5346 189.392 11.5267C189.032 12.5188 188.448 13.4016 187.638 14.1751C186.847 14.9318 185.794 15.5371 184.481 15.9911C183.186 16.4283 181.602 16.6469 179.732 16.6469H169.747V0.327893H179.732ZM173.336 13.7715H179.651C180.946 13.7715 182.016 13.6286 182.862 13.3427C183.725 13.0401 184.409 12.6365 184.913 12.132C185.416 11.6276 185.776 11.0559 185.992 10.4169C186.208 9.77794 186.316 9.11375 186.316 8.42433C186.316 7.73492 186.208 7.07913 185.992 6.45697C185.776 5.83482 185.416 5.27992 184.913 4.79228C184.409 4.30465 183.725 3.9179 182.862 3.63205C182.016 3.34619 180.946 3.20326 179.651 3.20326H173.336V13.7715Z" fill="#97C10C"/>
<path d="M197.053 9.8368V13.8472H210.519V16.6469H193.464V0.327893H210.492V3.1276H197.053V7.18843H208.063V9.8368H197.053Z" fill="#97C10C"/>
<path d="M220.384 16.6469L212.666 0.327893H216.633L223.244 15.0579H222.003L228.587 0.327893H232.5L224.863 16.6469H220.384Z" fill="#97C10C"/>
</svg>
