<svg width="228" height="16" viewBox="0 0 228 16" fill="none" xmlns="http://www.w3.org/2000/svg">
<path d="M6.1123 5.81055C6.1123 6.44434 7.86328 6.53027 10.1299 6.6377C14.1582 6.8418 19.8193 7.12109 19.8086 10.7412C19.8086 14.8662 15.082 15.8438 10.0117 15.8438C4.95215 15.833 0.751953 15.2207 0.214844 10.7412H6.1123C6.75684 11.8584 8.25 12.1484 10.0117 12.1484C11.7627 12.1484 13.9111 11.8584 13.9111 10.7412C13.9111 10.1074 12.1602 10.0107 9.89355 9.90332C5.86523 9.69922 0.204102 9.41992 0.214844 5.81055C0.214844 1.68555 4.94141 0.697266 10.0117 0.697266C15.0713 0.729492 19.2715 1.29883 19.8086 5.81055H13.9111C13.2666 4.67188 11.7734 4.40332 10.0117 4.40332C8.26074 4.40332 6.1123 4.66113 6.1123 5.81055ZM35.3955 10.5586H26.9414V15.4893H21.3125V1.05176H26.9414V5.98242H35.3955V1.05176H41.0352V15.4893H35.3955V10.5586ZM52.5615 5.25195L50.5742 9.5166H54.5381L52.5615 5.25195ZM41.4648 15.5107L49.21 1.07324H55.9023L63.6475 15.5107H57.3096L56.1709 13.04H48.9414L47.8027 15.5107H41.4648ZM78.1709 10.5586H69.7168V15.4893H64.0879V1.05176H69.7168V5.98242H78.1709V1.05176H83.8105V15.4893H78.1709V10.5586ZM95.9814 5.64941H86.4746V1.07324H105.134V5.64941L95.2832 10.9238H105.134V15.5107H86.4746V10.9238L95.9814 5.64941ZM116.671 5.25195L114.684 9.5166H118.647L116.671 5.25195ZM105.574 15.5107L113.319 1.07324H120.012L127.757 15.5107H121.419L120.28 13.04H113.051L111.912 15.5107H105.574ZM128.197 1.05176H133.826V15.4893H128.197V1.05176ZM142.441 12.0732H150.015C150.498 12.0732 150.896 11.5898 150.896 11.1064C150.896 10.623 150.498 10.1396 150.015 10.1396H142.441V12.0732ZM148.962 4.5H142.441V6.44434H148.962C149.445 6.44434 149.843 5.9502 149.843 5.4668C149.843 4.9834 149.445 4.5 148.962 4.5ZM153.452 8.04492C155.085 8.57129 156.181 9.81738 156.181 11.6328C156.213 14.1572 154.086 15.5107 151.604 15.5107H136.812V1.07324H150.541C153.044 1.0625 155.16 2.42676 155.128 4.94043C155.128 6.32617 154.483 7.38965 153.452 8.04492Z" fill="white"/>
<path d="M181.446 8.29199C181.446 6.83105 180.619 5.64941 179.158 5.64941H172.992V10.9346H179.158C180.619 10.9346 181.446 9.74219 181.446 8.29199ZM167.363 1.07324H180.211C184.175 1.01953 187.118 4.34961 187.086 8.29199C187.118 12.2129 184.175 15.5645 180.211 15.5107H167.363V1.07324ZM188.762 15.5107V1.07324H205.659V4.76855H194.391V6.61621H205.659V9.95703H194.391V11.8047H205.659V15.5107H188.762ZM212.438 1.07324L216.842 11.0957L221.246 1.07324H227.584L220.183 15.5107H213.49L206.1 1.07324H212.438Z" fill="#97C10C"/>
</svg>
